<svg xmlns="http://www.w3.org/2000/svg" viewBox="316 277 844 362" width="844" height="362">
  <defs>
    <linearGradient id="growthGrad" x1="698" y1="463" x2="1119" y2="463" gradientUnits="userSpaceOnUse">
      <stop offset="0" stop-color="#9030E6"/>
      <stop offset="0.3" stop-color="#B45CF3"/>
      <stop offset="0.58" stop-color="#D76AFA"/>
      <stop offset="0.8" stop-color="#AC41F0"/>
      <stop offset="1" stop-color="#9331E8"/>
    </linearGradient>
  </defs>
  <path d="M413,429 L 413,466 498,523 581,467 581,429 499,481 496,481 Z M357,319 L 357,598 393,574 394,385 398,386 498,452 598,386 602,387 602,573 638,597 637,319 499,409 Z" fill="#9218F6" fill-rule="evenodd"/>
<path d="M427,442 L 427,444 441,464 445,464 449,459 451,459 450,457 445,456 442,452 Z M633,407 L 632,413 629,415 627,419 623,419 617,423 611,430 609,430 608,433 603,433 604,544 607,543 610,544 610,546 614,544 618,539 622,540 625,549 631,551 634,572 637,576 635,555 632,552 631,534 627,533 626,530 623,532 620,531 618,518 616,518 613,514 611,500 614,488 622,474 622,471 628,463 632,452 632,438 636,433 637,409 Z M363,404 L 360,404 360,408 358,409 359,440 361,441 361,445 364,449 365,458 369,460 375,476 377,488 383,495 383,500 385,501 388,512 384,532 378,538 374,537 369,533 365,539 364,549 359,561 358,584 360,584 360,577 362,573 363,561 365,556 368,556 369,553 372,552 377,545 380,544 392,555 392,462 389,461 386,457 384,445 381,443 376,427 374,426 374,423 Z M609,345 L 602,347 599,351 593,353 592,356 588,357 587,359 573,367 571,370 567,371 566,376 562,380 560,380 559,384 554,385 549,394 541,399 540,403 536,406 533,414 535,425 548,416 553,415 555,412 562,409 571,403 574,399 579,397 579,394 584,391 585,387 590,382 594,368 597,368 597,360 601,358 602,352 610,347 Z M370,333 L 383,353 393,372 409,393 413,394 415,397 429,405 431,408 442,414 449,420 456,423 457,425 460,425 465,430 467,430 481,416 488,414 489,410 486,407 470,397 464,395 464,393 458,390 457,392 453,391 453,389 450,388 445,383 445,381 441,380 437,382 433,380 432,377 424,371 424,368 419,367 419,364 412,361 407,356 386,343 376,335 373,335 371,332 Z" fill="#B62EFB" fill-rule="evenodd"/>
<path d="M360,442 L 358,442 357,464 359,465 359,486 361,490 361,507 364,518 363,529 361,529 361,533 359,534 359,544 357,545 359,560 363,549 365,536 371,533 378,539 379,535 384,531 386,520 384,501 382,500 382,495 376,488 374,476 367,459 364,458 364,453 360,445 Z M635,437 L 633,438 632,456 615,488 612,498 612,506 615,516 619,518 621,532 626,530 632,534 632,544 634,553 637,555 637,542 635,536 632,535 631,498 633,479 636,479 637,440 635,439 Z M564,375 L 562,375 560,378 556,379 551,383 544,385 493,420 478,429 471,431 472,435 498,451 507,446 532,428 529,427 532,421 532,414 535,410 536,405 539,403 542,397 548,394 553,385 564,377 Z" fill="#CF4BF9" fill-rule="evenodd"/>
<path d="M414,441 L 414,466 433,480 463,498 424,441 Z M580,432 L 574,437 558,457 546,476 543,478 541,483 527,500 527,502 576,470 580,466 Z M601,370 L 589,386 591,388 600,384 Z" fill="#6F0EC8" fill-rule="evenodd"/>
<path d="M359,487 L 357,489 358,533 360,533 361,528 363,528 Z M634,478 L 632,498 633,535 637,536 637,481 Z M551,449 L 529,462 527,466 523,466 522,468 518,469 499,482 494,482 494,480 492,482 494,483 493,486 483,492 484,494 486,494 516,475 524,468 551,451 Z M430,442 L 439,447 447,454 452,455 452,457 455,458 457,461 465,464 465,466 470,469 472,466 467,465 467,463 451,454 442,447 436,445 432,441 Z M624,328 L 498,410 423,361 402,349 401,347 397,346 398,349 400,349 401,351 432,372 456,386 484,405 495,410 494,413 469,430 470,432 471,430 478,428 506,411 526,396 599,348 601,344 606,343 622,331 Z" fill="#EE91FA" fill-rule="evenodd"/>
<path d="M1065,432 L 1065,496 1076,496 1077,468 1109,469 1109,496 1120,496 1119,431 1109,432 1108,458 1076,457 1075,431 Z M1001,432 L 1001,441 1022,442 1022,496 1033,496 1033,443 1035,441 1054,441 1053,431 Z M904,431 L 924,495 926,497 935,496 949,454 953,457 965,496 974,497 976,495 995,431 983,432 977,456 971,472 967,469 955,431 944,432 932,472 928,472 916,432 Z M772,432 L 772,496 783,496 784,473 800,474 812,495 817,497 826,496 812,474 812,471 821,463 824,455 824,449 820,439 815,434 805,431 Z M783,443 L 785,441 806,442 811,446 812,455 805,462 785,463 783,461 Z M863,430 L 853,432 847,435 839,443 834,454 833,469 838,483 845,491 854,496 868,498 883,494 891,488 898,476 900,463 897,449 888,437 879,432 Z M860,441 L 872,441 879,444 884,449 887,455 887,473 880,483 872,487 861,487 856,485 850,480 846,473 846,454 855,443 Z M744,431 L 731,430 718,433 706,442 701,451 699,462 701,477 705,485 712,492 719,496 732,498 741,497 751,493 758,487 758,461 733,461 733,471 747,472 746,483 739,487 725,487 716,480 712,472 712,455 715,449 722,443 727,441 739,441 744,443 749,448 751,448 757,440 752,435 Z" fill="url(#growthGrad)" fill-rule="evenodd"/>
<path d="M826,527 L 826,591 861,591 869,588 875,582 877,577 876,566 869,559 868,556 872,552 874,547 872,535 866,529 861,527 Z M837,562 L 856,562 862,564 867,571 865,578 860,582 841,583 835,581 Z M835,537 L 837,535 858,536 863,540 863,549 856,554 835,553 Z M777,528 L 752,591 763,591 769,575 798,575 801,579 805,591 816,591 790,527 Z M782,541 L 786,541 795,563 794,567 773,566 773,563 Z M704,527 L 704,591 745,591 745,582 714,581 714,527 Z M901,527 L 894,531 889,538 888,544 891,554 899,560 922,567 925,570 926,575 925,578 918,583 904,583 893,576 889,578 887,583 889,586 899,591 920,592 927,589 933,584 936,576 935,567 929,559 902,550 899,546 899,541 905,535 917,535 929,541 933,536 932,532 918,526 Z M916,337 L 890,402 900,402 902,400 906,388 937,387 944,402 954,402 953,396 929,337 Z M921,351 L 925,352 934,375 933,378 911,377 Z M843,337 L 843,345 863,346 863,402 873,401 874,345 894,345 893,337 Z M788,337 L 788,402 833,402 833,393 799,393 797,391 797,377 799,373 829,373 829,364 798,363 797,347 799,345 832,345 832,337 Z M704,337 L 704,402 713,402 714,360 718,361 734,393 741,392 758,357 761,358 761,402 770,402 770,337 756,338 739,375 734,375 717,338 Z" fill="#F9F7FB" fill-rule="evenodd"/>
</svg>
