<svg xmlns="http://www.w3.org/2000/svg" viewBox="332.5 293.5 330 330" width="330" height="330">
  <path d="M413,429 L 413,466 498,523 581,467 581,429 499,481 496,481 Z M357,319 L 357,598 393,574 394,385 398,386 498,452 598,386 602,387 602,573 638,597 637,319 499,409 Z" fill="#9218F6" fill-rule="evenodd"/>
  <path d="M427,442 L 427,444 441,464 445,464 449,459 451,459 450,457 445,456 442,452 Z M633,407 L 632,413 629,415 627,419 623,419 617,423 611,430 609,430 608,433 603,433 604,544 607,543 610,544 610,546 614,544 618,539 622,540 625,549 631,551 634,572 637,576 635,555 632,552 631,534 627,533 626,530 623,532 620,531 618,518 616,518 613,514 611,500 614,488 622,474 622,471 628,463 632,452 632,438 636,433 637,409 Z M363,404 L 360,404 360,408 358,409 359,440 361,441 361,445 364,449 365,458 369,460 375,476 377,488 383,495 383,500 385,501 388,512 384,532 378,538 374,537 369,533 365,539 364,549 359,561 358,584 360,584 360,577 362,573 363,561 365,556 368,556 369,553 372,552 377,545 380,544 392,555 392,462 389,461 386,457 384,445 381,443 376,427 374,426 374,423 Z M609,345 L 602,347 599,351 593,353 592,356 588,357 587,359 573,367 571,370 567,371 566,376 562,380 560,380 559,384 554,385 549,394 541,399 540,403 536,406 533,414 535,425 548,416 553,415 555,412 562,409 571,403 574,399 579,397 579,394 584,391 585,387 590,382 594,368 597,368 597,360 601,358 602,352 610,347 Z M370,333 L 383,353 393,372 409,393 413,394 415,397 429,405 431,408 442,414 449,420 456,423 457,425 460,425 465,430 467,430 481,416 488,414 489,410 486,407 470,397 464,395 464,393 458,390 457,392 453,391 453,389 450,388 445,383 445,381 441,380 437,382 433,380 432,377 424,371 424,368 419,367 419,364 412,361 407,356 386,343 376,335 373,335 371,332 Z" fill="#B62EFB" fill-rule="evenodd"/>
  <path d="M360,442 L 358,442 357,464 359,465 359,486 361,490 361,507 364,518 363,529 361,529 361,533 359,534 359,544 357,545 359,560 363,549 365,536 371,533 378,539 379,535 384,531 386,520 384,501 382,500 382,495 376,488 374,476 367,459 364,458 364,453 360,445 Z M635,437 L 633,438 632,456 615,488 612,498 612,506 615,516 619,518 621,532 626,530 632,534 632,544 634,553 637,555 637,542 635,536 632,535 631,498 633,479 636,479 637,440 635,439 Z M564,375 L 562,375 560,378 556,379 551,383 544,385 493,420 478,429 471,431 472,435 498,451 507,446 532,428 529,427 532,421 532,414 535,410 536,405 539,403 542,397 548,394 553,385 564,377 Z" fill="#CF4BF9" fill-rule="evenodd"/>
  <path d="M414,441 L 414,466 433,480 463,498 424,441 Z M580,432 L 574,437 558,457 546,476 543,478 541,483 527,500 527,502 576,470 580,466 Z M601,370 L 589,386 591,388 600,384 Z" fill="#6F0EC8" fill-rule="evenodd"/>
  <path d="M359,487 L 357,489 358,533 360,533 361,528 363,528 Z M634,478 L 632,498 633,535 637,536 637,481 Z M551,449 L 529,462 527,466 523,466 522,468 518,469 499,482 494,482 494,480 492,482 494,483 493,486 483,492 484,494 486,494 516,475 524,468 551,451 Z M430,442 L 439,447 447,454 452,455 452,457 455,458 457,461 465,464 465,466 470,469 472,466 467,465 467,463 451,454 442,447 436,445 432,441 Z M624,328 L 498,410 423,361 402,349 401,347 397,346 398,349 400,349 401,351 432,372 456,386 484,405 495,410 494,413 469,430 470,432 471,430 478,428 506,411 526,396 599,348 601,344 606,343 622,331 Z" fill="#EE91FA" fill-rule="evenodd"/>
</svg>
